<svg xmlns="http://www.w3.org/2000/svg" xmlns:xlink="http://www.w3.org/1999/xlink" width="500" zoomAndPan="magnify" viewBox="0 0 375 374.999991" height="500" preserveAspectRatio="xMidYMid meet" version="1.0"><defs><g/><clipPath id="878591a788"><path d="M 0 125.425781 L 96.664062 125.425781 L 96.664062 249.710938 L 0 249.710938 Z M 0 125.425781 " clip-rule="nonzero"/></clipPath></defs><g clip-path="url(#878591a788)"><path fill="#faf9fa" d="M 17.652344 125.679688 C 26.945312 133.375 36.242188 140.945312 45.371094 148.71875 C 47.589844 150.613281 48.953125 150.640625 51.183594 148.730469 C 60.21875 141.007812 69.4375 133.503906 79.039062 125.539062 C 80.71875 130.695312 82.347656 135.523438 83.875 140.382812 C 87.894531 153.210938 91.847656 166.050781 95.894531 178.867188 C 96.371094 180.382812 96.496094 181.589844 95.507812 182.976562 C 80.023438 204.738281 64.570312 226.535156 49.113281 248.320312 C 48.917969 248.601562 48.710938 248.871094 48.277344 249.464844 C 43.992188 243.425781 39.894531 237.648438 35.792969 231.871094 C 24.332031 215.707031 12.898438 199.535156 1.375 183.414062 C 0.347656 181.976562 -0.0078125 180.769531 0.523438 179.078125 C 6.039062 161.636719 11.507812 144.183594 16.996094 126.730469 C 17.097656 126.425781 17.34375 126.164062 17.652344 125.679688 Z M 17.652344 125.679688 " fill-opacity="1" fill-rule="evenodd"/></g><path fill="#4a4645" d="M 47.972656 227.160156 C 48.179688 227.125 48.378906 227.085938 48.578125 227.050781 C 50.355469 220.050781 51.964844 212.996094 53.945312 206.054688 C 55.636719 200.101562 56.90625 194.257812 54.636719 188.183594 C 54.082031 186.710938 53.816406 185.128906 53.457031 183.585938 C 51.820312 176.703125 50.199219 169.804688 48.566406 162.921875 C 46.09375 171.171875 44.542969 179.5 42.296875 187.632812 C 40.710938 193.390625 40.75 198.796875 42.390625 204.511719 C 44.542969 211.976562 46.136719 219.601562 47.972656 227.160156 Z M 47.972656 227.160156 " fill-opacity="1" fill-rule="evenodd"/><path fill="#4a4645" d="M 38.554688 188.664062 C 38.734375 188.710938 38.917969 188.765625 39.101562 188.804688 C 41.308594 179.03125 43.507812 169.253906 45.746094 159.484375 C 45.945312 158.597656 45.746094 157.980469 45.085938 157.390625 C 39.203125 152.128906 33.335938 146.859375 26.929688 141.097656 C 30.921875 157.421875 34.734375 173.042969 38.554688 188.664062 Z M 38.554688 188.664062 " fill-opacity="1" fill-rule="evenodd"/><path fill="#4a4645" d="M 69.246094 142.554688 C 69.003906 142.386719 68.765625 142.234375 68.523438 142.074219 C 62.839844 147.183594 57.175781 152.304688 51.460938 157.382812 C 50.390625 158.339844 50.722656 159.304688 50.984375 160.445312 C 52.289062 166.046875 53.390625 171.699219 54.792969 177.273438 C 55.742188 181.011719 56.113281 184.925781 57.882812 189.0625 C 61.769531 173.167969 65.507812 157.855469 69.246094 142.554688 Z M 69.246094 142.554688 " fill-opacity="1" fill-rule="evenodd"/><path fill="#c28c88" d="M 47.972656 227.160156 C 46.136719 219.605469 44.539062 211.976562 42.386719 204.507812 C 40.746094 198.792969 40.707031 193.386719 42.292969 187.628906 C 44.539062 179.496094 46.089844 171.167969 48.5625 162.917969 C 50.191406 169.804688 51.816406 176.703125 53.449219 183.582031 C 53.8125 185.125 54.074219 186.703125 54.628906 188.183594 C 56.902344 194.253906 55.628906 200.097656 53.9375 206.050781 C 51.957031 212.992188 50.351562 220.050781 48.574219 227.050781 C 48.382812 227.085938 48.179688 227.125 47.972656 227.160156 Z M 47.972656 227.160156 " fill-opacity="1" fill-rule="evenodd"/><path fill="#c07973" d="M 38.554688 188.664062 C 34.734375 173.042969 30.921875 157.421875 26.929688 141.097656 C 33.335938 146.859375 39.203125 152.128906 45.085938 157.390625 C 45.746094 157.980469 45.945312 158.597656 45.746094 159.484375 C 43.507812 169.253906 41.308594 179.03125 39.101562 188.804688 C 38.917969 188.765625 38.734375 188.714844 38.554688 188.664062 Z M 38.554688 188.664062 " fill-opacity="1" fill-rule="evenodd"/><path fill="#c07973" d="M 69.246094 142.554688 C 65.507812 157.855469 61.769531 173.167969 57.882812 189.066406 C 56.113281 184.929688 55.742188 181.011719 54.792969 177.277344 C 53.390625 171.699219 52.289062 166.050781 50.984375 160.445312 C 50.722656 159.308594 50.390625 158.339844 51.460938 157.386719 C 57.175781 152.304688 62.839844 147.183594 68.523438 142.074219 C 68.765625 142.234375 69.007812 142.390625 69.246094 142.554688 Z M 69.246094 142.554688 " fill-opacity="1" fill-rule="evenodd"/><g fill="#faf9fa" fill-opacity="1"><g transform="translate(114.419529, 193.672066)"><g><path d="M 24.484375 -36.421875 L 32.515625 -36.421875 L 32.515625 -14.1875 C 32.515625 -9.332031 31.191406 -5.664062 28.546875 -3.1875 C 25.898438 -0.707031 22.207031 0.53125 17.46875 0.53125 C 12.71875 0.53125 9.019531 -0.707031 6.375 -3.1875 C 3.726562 -5.664062 2.40625 -9.332031 2.40625 -14.1875 L 2.40625 -36.421875 L 10.4375 -36.421875 L 10.4375 -15.375 C 10.4375 -12.875 10.925781 -10.9375 11.90625 -9.5625 C 12.894531 -8.1875 14.75 -7.5 17.46875 -7.5 C 20.207031 -7.5 22.0625 -8.1875 23.03125 -9.5625 C 24 -10.9375 24.484375 -12.875 24.484375 -15.375 Z M 24.484375 -36.421875 "/></g></g></g><g fill="#faf9fa" fill-opacity="1"><g transform="translate(151.162379, 193.672066)"><g><path d="M 27.375 -13.390625 L 27.375 0 L 19.34375 0 L 19.34375 -13.390625 C 19.34375 -14.785156 19.054688 -15.847656 18.484375 -16.578125 C 17.910156 -17.304688 17 -17.671875 15.75 -17.671875 C 14.5 -17.671875 13.4375 -17.085938 12.5625 -15.921875 C 11.6875 -14.765625 11.25 -13.382812 11.25 -11.78125 L 11.25 0 L 3.21875 0 L 3.21875 -23.625 L 11.25 -23.625 L 11.25 -20.734375 C 12.070312 -21.765625 13.097656 -22.59375 14.328125 -23.21875 C 15.554688 -23.84375 16.941406 -24.15625 18.484375 -24.15625 C 21.660156 -24.15625 23.9375 -23.164062 25.3125 -21.1875 C 26.6875 -19.207031 27.375 -16.609375 27.375 -13.390625 Z M 27.375 -13.390625 "/></g></g></g><g fill="#faf9fa" fill-opacity="1"><g transform="translate(182.763436, 193.672066)"><g><path d="M 2.78125 -31.703125 C 2.78125 -33.023438 3.234375 -34.140625 4.140625 -35.046875 C 5.054688 -35.960938 6.175781 -36.421875 7.5 -36.421875 C 8.78125 -36.421875 9.882812 -35.960938 10.8125 -35.046875 C 11.75 -34.140625 12.21875 -33.023438 12.21875 -31.703125 C 12.21875 -30.421875 11.75 -29.316406 10.8125 -28.390625 C 9.882812 -27.460938 8.78125 -27 7.5 -27 C 6.175781 -27 5.054688 -27.460938 4.140625 -28.390625 C 3.234375 -29.316406 2.78125 -30.421875 2.78125 -31.703125 Z M 11.515625 0 L 3.484375 0 L 3.484375 -23.625 L 11.515625 -23.625 Z M 11.515625 0 "/></g></g></g><g fill="#faf9fa" fill-opacity="1"><g transform="translate(199.581848, 193.672066)"><g><path d="M 12.59375 -40.171875 L 18.53125 -40.171875 L 18.53125 -33.90625 L 15.109375 -33.90625 C 14.285156 -33.90625 13.726562 -33.65625 13.4375 -33.15625 C 13.15625 -32.65625 13.015625 -31.832031 13.015625 -30.6875 L 13.015625 -23.625 L 18.53125 -23.625 L 18.53125 -17.40625 L 13.015625 -17.40625 L 13.015625 0 L 4.984375 0 L 4.984375 -17.40625 L 1.609375 -17.40625 L 1.609375 -23.625 L 4.984375 -23.625 L 4.984375 -31.65625 C 4.984375 -34.582031 5.710938 -36.734375 7.171875 -38.109375 C 8.640625 -39.484375 10.445312 -40.171875 12.59375 -40.171875 Z M 12.59375 -40.171875 "/></g></g></g><g fill="#faf9fa" fill-opacity="1"><g transform="translate(220.84576, 193.672066)"><g><path d="M 15.375 -5.578125 C 16.800781 -5.578125 17.90625 -5.878906 18.6875 -6.484375 C 19.476562 -7.085938 20.03125 -7.863281 20.34375 -8.8125 C 20.664062 -9.757812 20.828125 -10.734375 20.828125 -11.734375 C 20.828125 -12.734375 20.65625 -13.695312 20.3125 -14.625 C 19.976562 -15.550781 19.421875 -16.316406 18.640625 -16.921875 C 17.859375 -17.535156 16.769531 -17.84375 15.375 -17.84375 C 13.976562 -17.84375 12.878906 -17.535156 12.078125 -16.921875 C 11.273438 -16.316406 10.703125 -15.550781 10.359375 -14.625 C 10.023438 -13.695312 9.859375 -12.734375 9.859375 -11.734375 C 9.859375 -10.734375 10.015625 -9.757812 10.328125 -8.8125 C 10.648438 -7.863281 11.210938 -7.085938 12.015625 -6.484375 C 12.828125 -5.878906 13.945312 -5.578125 15.375 -5.578125 Z M 15.375 -24.109375 C 17.832031 -24.109375 20.078125 -23.585938 22.109375 -22.546875 C 24.148438 -21.515625 25.773438 -20.078125 26.984375 -18.234375 C 28.203125 -16.398438 28.8125 -14.25 28.8125 -11.78125 C 28.8125 -9.28125 28.210938 -7.109375 27.015625 -5.265625 C 25.828125 -3.429688 24.210938 -2.015625 22.171875 -1.015625 C 20.140625 -0.015625 17.875 0.484375 15.375 0.484375 C 12.875 0.484375 10.597656 -0.015625 8.546875 -1.015625 C 6.492188 -2.015625 4.867188 -3.429688 3.671875 -5.265625 C 2.472656 -7.109375 1.875 -9.28125 1.875 -11.78125 C 1.875 -14.25 2.476562 -16.398438 3.6875 -18.234375 C 4.90625 -20.078125 6.539062 -21.515625 8.59375 -22.546875 C 10.644531 -23.585938 12.90625 -24.109375 15.375 -24.109375 Z M 15.375 -24.109375 "/></g></g></g><g fill="#faf9fa" fill-opacity="1"><g transform="translate(253.357349, 193.672066)"><g><path d="M 16.546875 -17.671875 C 15.546875 -17.671875 14.644531 -17.375 13.84375 -16.78125 C 13.039062 -16.195312 12.40625 -15.457031 11.9375 -14.5625 C 11.476562 -13.675781 11.25 -12.75 11.25 -11.78125 L 11.25 0 L 3.21875 0 L 3.21875 -23.625 L 11.25 -23.625 L 11.25 -20.734375 C 11.851562 -21.617188 12.671875 -22.410156 13.703125 -23.109375 C 14.742188 -23.804688 16 -24.15625 17.46875 -24.15625 C 17.820312 -24.15625 18.226562 -24.109375 18.6875 -24.015625 C 19.15625 -23.929688 19.550781 -23.800781 19.875 -23.625 L 19.875 -16.34375 L 19.765625 -16.34375 C 19.367188 -16.84375 18.882812 -17.1875 18.3125 -17.375 C 17.75 -17.570312 17.160156 -17.671875 16.546875 -17.671875 Z M 16.546875 -17.671875 "/></g></g></g><g fill="#faf9fa" fill-opacity="1"><g transform="translate(275.585352, 193.672066)"><g><path d="M 27.046875 -12 L 27.046875 0 L 19.015625 0 L 19.015625 -13.0625 C 19.015625 -14.207031 18.78125 -15.257812 18.3125 -16.21875 C 17.851562 -17.1875 16.945312 -17.671875 15.59375 -17.671875 C 14.695312 -17.671875 13.914062 -17.335938 13.25 -16.671875 C 12.59375 -16.015625 12.09375 -15.234375 11.75 -14.328125 C 11.414062 -13.421875 11.25 -12.570312 11.25 -11.78125 L 11.25 0 L 3.21875 0 L 3.21875 -23.625 L 11.25 -23.625 L 11.25 -20.734375 C 12.070312 -21.765625 13.035156 -22.59375 14.140625 -23.21875 C 15.242188 -23.84375 16.457031 -24.15625 17.78125 -24.15625 C 19.28125 -24.15625 20.671875 -23.820312 21.953125 -23.15625 C 23.242188 -22.5 24.300781 -21.492188 25.125 -20.140625 C 26.257812 -21.597656 27.515625 -22.628906 28.890625 -23.234375 C 30.265625 -23.847656 31.882812 -24.15625 33.75 -24.15625 C 35.8125 -24.15625 37.515625 -23.65625 38.859375 -22.65625 C 40.203125 -21.65625 41.203125 -20.316406 41.859375 -18.640625 C 42.515625 -16.960938 42.84375 -15.101562 42.84375 -13.0625 L 42.84375 0 L 34.8125 0 L 34.8125 -13.0625 C 34.8125 -14.207031 34.578125 -15.257812 34.109375 -16.21875 C 33.648438 -17.1875 32.742188 -17.671875 31.390625 -17.671875 C 30.347656 -17.671875 29.503906 -17.382812 28.859375 -16.8125 C 28.222656 -16.25 27.757812 -15.53125 27.46875 -14.65625 C 27.1875 -13.78125 27.046875 -12.894531 27.046875 -12 Z M 27.046875 -12 "/></g></g></g><g fill="#faf9fa" fill-opacity="1"><g transform="translate(114.419529, 225.888183)"><g><path d="M 5.203125 0 L 5.203125 -6.53125 L 0.15625 -13.65625 L 3.75 -13.65625 L 6.71875 -8.9375 L 9.671875 -13.65625 L 13.265625 -13.65625 L 8.21875 -6.53125 L 8.21875 0 Z M 5.203125 0 "/></g></g></g><g fill="#faf9fa" fill-opacity="1"><g transform="translate(135.06996, 225.888183)"><g><path d="M 11.75 -6.859375 C 11.75 -7.566406 11.5625 -8.222656 11.1875 -8.828125 C 10.8125 -9.441406 10.316406 -9.9375 9.703125 -10.3125 C 9.097656 -10.6875 8.441406 -10.875 7.734375 -10.875 C 7.035156 -10.875 6.378906 -10.6875 5.765625 -10.3125 C 5.148438 -9.9375 4.65625 -9.441406 4.28125 -8.828125 C 3.90625 -8.222656 3.71875 -7.566406 3.71875 -6.859375 C 3.71875 -6.160156 3.90625 -5.5 4.28125 -4.875 C 4.65625 -4.257812 5.148438 -3.757812 5.765625 -3.375 C 6.378906 -3 7.035156 -2.8125 7.734375 -2.8125 C 8.441406 -2.8125 9.097656 -3 9.703125 -3.375 C 10.316406 -3.757812 10.8125 -4.257812 11.1875 -4.875 C 11.5625 -5.5 11.75 -6.160156 11.75 -6.859375 Z M 14.765625 -6.828125 C 14.765625 -5.890625 14.578125 -4.992188 14.203125 -4.140625 C 13.828125 -3.296875 13.3125 -2.546875 12.65625 -1.890625 C 12.007812 -1.242188 11.265625 -0.734375 10.421875 -0.359375 C 9.578125 0.015625 8.679688 0.203125 7.734375 0.203125 C 6.796875 0.203125 5.898438 0.015625 5.046875 -0.359375 C 4.203125 -0.734375 3.453125 -1.242188 2.796875 -1.890625 C 2.148438 -2.546875 1.640625 -3.296875 1.265625 -4.140625 C 0.890625 -4.992188 0.703125 -5.890625 0.703125 -6.828125 C 0.703125 -7.785156 0.890625 -8.6875 1.265625 -9.53125 C 1.640625 -10.375 2.148438 -11.117188 2.796875 -11.765625 C 3.453125 -12.410156 4.203125 -12.921875 5.046875 -13.296875 C 5.898438 -13.671875 6.796875 -13.859375 7.734375 -13.859375 C 8.679688 -13.859375 9.578125 -13.671875 10.421875 -13.296875 C 11.265625 -12.921875 12.007812 -12.410156 12.65625 -11.765625 C 13.3125 -11.117188 13.828125 -10.375 14.203125 -9.53125 C 14.578125 -8.6875 14.765625 -7.785156 14.765625 -6.828125 Z M 14.765625 -6.828125 "/></g></g></g><g fill="#faf9fa" fill-opacity="1"><g transform="translate(157.76923, 225.888183)"><g><path d="M 9.1875 -13.65625 L 12.203125 -13.65625 L 12.203125 -5.328125 C 12.203125 -3.503906 11.703125 -2.125 10.703125 -1.1875 C 9.710938 -0.257812 8.328125 0.203125 6.546875 0.203125 C 4.765625 0.203125 3.378906 -0.257812 2.390625 -1.1875 C 1.398438 -2.125 0.90625 -3.503906 0.90625 -5.328125 L 0.90625 -13.65625 L 3.921875 -13.65625 L 3.921875 -5.765625 C 3.921875 -4.828125 4.101562 -4.097656 4.46875 -3.578125 C 4.832031 -3.066406 5.523438 -2.8125 6.546875 -2.8125 C 7.578125 -2.8125 8.273438 -3.066406 8.640625 -3.578125 C 9.003906 -4.097656 9.1875 -4.828125 9.1875 -5.765625 Z M 9.1875 -13.65625 "/></g></g></g><g fill="#faf9fa" fill-opacity="1"><g transform="translate(178.098274, 225.888183)"><g><path d="M 11.9375 0 L 8.921875 0 L 4.21875 -8.515625 L 4.21875 0 L 1.203125 0 L 1.203125 -13.65625 L 4.21875 -13.65625 L 8.921875 -5.140625 L 8.921875 -13.65625 L 11.9375 -13.65625 Z M 11.9375 0 "/></g></g></g><g fill="#faf9fa" fill-opacity="1"><g transform="translate(198.467494, 225.888183)"><g><path d="M 8.03125 -11.046875 C 7.3125 -11.046875 6.648438 -10.851562 6.046875 -10.46875 C 5.441406 -10.082031 4.957031 -9.566406 4.59375 -8.921875 C 4.238281 -8.273438 4.0625 -7.566406 4.0625 -6.796875 C 4.0625 -6.023438 4.238281 -5.316406 4.59375 -4.671875 C 4.957031 -4.023438 5.441406 -3.503906 6.046875 -3.109375 C 6.648438 -2.722656 7.3125 -2.53125 8.03125 -2.53125 C 8.476562 -2.53125 8.945312 -2.59375 9.4375 -2.71875 C 9.925781 -2.84375 10.378906 -3.085938 10.796875 -3.453125 C 11.222656 -3.816406 11.554688 -4.335938 11.796875 -5.015625 L 8.3125 -5.015625 L 8.3125 -7.296875 L 15.046875 -7.296875 L 15.046875 -6.828125 C 15.046875 -5.867188 14.863281 -4.960938 14.5 -4.109375 C 14.144531 -3.253906 13.644531 -2.503906 13 -1.859375 C 12.351562 -1.210938 11.609375 -0.707031 10.765625 -0.34375 C 9.921875 0.0195312 9.007812 0.203125 8.03125 0.203125 C 7.070312 0.203125 6.164062 0.0195312 5.3125 -0.34375 C 4.457031 -0.71875 3.707031 -1.222656 3.0625 -1.859375 C 2.425781 -2.503906 1.921875 -3.253906 1.546875 -4.109375 C 1.179688 -4.960938 1 -5.867188 1 -6.828125 C 1 -7.796875 1.179688 -8.703125 1.546875 -9.546875 C 1.921875 -10.398438 2.425781 -11.148438 3.0625 -11.796875 C 3.707031 -12.441406 4.457031 -12.945312 5.3125 -13.3125 C 6.164062 -13.675781 7.070312 -13.859375 8.03125 -13.859375 C 9.039062 -13.859375 9.992188 -13.65625 10.890625 -13.25 C 11.785156 -12.84375 12.566406 -12.28125 13.234375 -11.5625 C 13.910156 -10.84375 14.398438 -10.007812 14.703125 -9.0625 L 11.390625 -9.0625 C 11.054688 -9.78125 10.582031 -10.289062 9.96875 -10.59375 C 9.351562 -10.894531 8.707031 -11.046875 8.03125 -11.046875 Z M 8.03125 -11.046875 "/></g></g></g><g fill="#faf9fa" fill-opacity="1"><g transform="translate(221.447981, 225.888183)"><g><path d="M 0.40625 -15.0625 L 2.671875 -15.0625 L 2.265625 -9.5 L 0.796875 -9.5 Z M 0.40625 -15.0625 "/></g></g></g><g fill="#faf9fa" fill-opacity="1"><g transform="translate(231.753765, 225.888183)"><g><path d="M 6.515625 -2.125 C 6.835938 -2.125 7.1875 -2.175781 7.5625 -2.28125 C 7.9375 -2.382812 8.257812 -2.550781 8.53125 -2.78125 C 8.800781 -3.019531 8.9375 -3.335938 8.9375 -3.734375 C 8.9375 -4.109375 8.789062 -4.410156 8.5 -4.640625 C 8.21875 -4.867188 7.84375 -5.054688 7.375 -5.203125 C 6.90625 -5.347656 6.390625 -5.484375 5.828125 -5.609375 C 5.273438 -5.742188 4.71875 -5.898438 4.15625 -6.078125 C 3.59375 -6.253906 3.078125 -6.488281 2.609375 -6.78125 C 2.140625 -7.082031 1.757812 -7.46875 1.46875 -7.9375 C 1.1875 -8.40625 1.046875 -9 1.046875 -9.71875 C 1.046875 -10.4375 1.191406 -11.050781 1.484375 -11.5625 C 1.773438 -12.082031 2.164062 -12.507812 2.65625 -12.84375 C 3.144531 -13.1875 3.691406 -13.441406 4.296875 -13.609375 C 4.910156 -13.773438 5.53125 -13.859375 6.15625 -13.859375 C 7.09375 -13.859375 7.96875 -13.710938 8.78125 -13.421875 C 9.59375 -13.128906 10.253906 -12.664062 10.765625 -12.03125 C 11.285156 -11.394531 11.5625 -10.550781 11.59375 -9.5 L 8.6875 -9.5 C 8.601562 -10.207031 8.351562 -10.695312 7.9375 -10.96875 C 7.519531 -11.25 6.9375 -11.390625 6.1875 -11.390625 C 5.90625 -11.390625 5.609375 -11.34375 5.296875 -11.25 C 4.984375 -11.15625 4.710938 -11.003906 4.484375 -10.796875 C 4.265625 -10.585938 4.15625 -10.3125 4.15625 -9.96875 C 4.15625 -9.613281 4.296875 -9.335938 4.578125 -9.140625 C 4.867188 -8.941406 5.25 -8.773438 5.71875 -8.640625 C 6.195312 -8.503906 6.71875 -8.375 7.28125 -8.25 C 7.84375 -8.132812 8.398438 -7.988281 8.953125 -7.8125 C 9.503906 -7.644531 10.015625 -7.410156 10.484375 -7.109375 C 10.953125 -6.804688 11.332031 -6.410156 11.625 -5.921875 C 11.914062 -5.441406 12.0625 -4.828125 12.0625 -4.078125 C 12.0625 -3.273438 11.898438 -2.59375 11.578125 -2.03125 C 11.253906 -1.46875 10.820312 -1.015625 10.28125 -0.671875 C 9.738281 -0.328125 9.128906 -0.078125 8.453125 0.078125 C 7.773438 0.242188 7.085938 0.328125 6.390625 0.328125 C 5.378906 0.328125 4.4375 0.15625 3.5625 -0.1875 C 2.6875 -0.53125 1.976562 -1.054688 1.4375 -1.765625 C 0.894531 -2.472656 0.617188 -3.382812 0.609375 -4.5 L 3.65625 -4.5 C 3.695312 -3.6875 4 -3.085938 4.5625 -2.703125 C 5.125 -2.316406 5.773438 -2.125 6.515625 -2.125 Z M 6.515625 -2.125 "/></g></g></g><g fill="#faf9fa" fill-opacity="1"><g transform="translate(251.640909, 225.888183)"><g/></g></g><g fill="#faf9fa" fill-opacity="1"><g transform="translate(263.895101, 225.888183)"><g><path d="M 6.515625 -2.125 C 6.835938 -2.125 7.1875 -2.175781 7.5625 -2.28125 C 7.9375 -2.382812 8.257812 -2.550781 8.53125 -2.78125 C 8.800781 -3.019531 8.9375 -3.335938 8.9375 -3.734375 C 8.9375 -4.109375 8.789062 -4.410156 8.5 -4.640625 C 8.21875 -4.867188 7.84375 -5.054688 7.375 -5.203125 C 6.90625 -5.347656 6.390625 -5.484375 5.828125 -5.609375 C 5.273438 -5.742188 4.71875 -5.898438 4.15625 -6.078125 C 3.59375 -6.253906 3.078125 -6.488281 2.609375 -6.78125 C 2.140625 -7.082031 1.757812 -7.46875 1.46875 -7.9375 C 1.1875 -8.40625 1.046875 -9 1.046875 -9.71875 C 1.046875 -10.4375 1.191406 -11.050781 1.484375 -11.5625 C 1.773438 -12.082031 2.164062 -12.507812 2.65625 -12.84375 C 3.144531 -13.1875 3.691406 -13.441406 4.296875 -13.609375 C 4.910156 -13.773438 5.53125 -13.859375 6.15625 -13.859375 C 7.09375 -13.859375 7.96875 -13.710938 8.78125 -13.421875 C 9.59375 -13.128906 10.253906 -12.664062 10.765625 -12.03125 C 11.285156 -11.394531 11.5625 -10.550781 11.59375 -9.5 L 8.6875 -9.5 C 8.601562 -10.207031 8.351562 -10.695312 7.9375 -10.96875 C 7.519531 -11.25 6.9375 -11.390625 6.1875 -11.390625 C 5.90625 -11.390625 5.609375 -11.34375 5.296875 -11.25 C 4.984375 -11.15625 4.710938 -11.003906 4.484375 -10.796875 C 4.265625 -10.585938 4.15625 -10.3125 4.15625 -9.96875 C 4.15625 -9.613281 4.296875 -9.335938 4.578125 -9.140625 C 4.867188 -8.941406 5.25 -8.773438 5.71875 -8.640625 C 6.195312 -8.503906 6.71875 -8.375 7.28125 -8.25 C 7.84375 -8.132812 8.398438 -7.988281 8.953125 -7.8125 C 9.503906 -7.644531 10.015625 -7.410156 10.484375 -7.109375 C 10.953125 -6.804688 11.332031 -6.410156 11.625 -5.921875 C 11.914062 -5.441406 12.0625 -4.828125 12.0625 -4.078125 C 12.0625 -3.273438 11.898438 -2.59375 11.578125 -2.03125 C 11.253906 -1.46875 10.820312 -1.015625 10.28125 -0.671875 C 9.738281 -0.328125 9.128906 -0.078125 8.453125 0.078125 C 7.773438 0.242188 7.085938 0.328125 6.390625 0.328125 C 5.378906 0.328125 4.4375 0.15625 3.5625 -0.1875 C 2.6875 -0.53125 1.976562 -1.054688 1.4375 -1.765625 C 0.894531 -2.472656 0.617188 -3.382812 0.609375 -4.5 L 3.65625 -4.5 C 3.695312 -3.6875 4 -3.085938 4.5625 -2.703125 C 5.125 -2.316406 5.773438 -2.125 6.515625 -2.125 Z M 6.515625 -2.125 "/></g></g></g><g fill="#faf9fa" fill-opacity="1"><g transform="translate(283.782245, 225.888183)"><g><path d="M 7.015625 -10.9375 L 7.015625 0 L 4 0 L 4 -10.9375 L 0.09375 -10.9375 L 0.09375 -13.65625 L 10.90625 -13.65625 L 10.90625 -10.9375 Z M 7.015625 -10.9375 "/></g></g></g><g fill="#faf9fa" fill-opacity="1"><g transform="translate(302.022274, 225.888183)"><g><path d="M 5.203125 0 L 5.203125 -6.53125 L 0.15625 -13.65625 L 3.75 -13.65625 L 6.71875 -8.9375 L 9.671875 -13.65625 L 13.265625 -13.65625 L 8.21875 -6.53125 L 8.21875 0 Z M 5.203125 0 "/></g></g></g><g fill="#faf9fa" fill-opacity="1"><g transform="translate(322.672708, 225.888183)"><g><path d="M 1.203125 0 L 1.203125 -13.65625 L 4.21875 -13.65625 L 4.21875 -2.734375 L 9.125 -2.734375 L 9.125 0 Z M 1.203125 0 "/></g></g></g><g fill="#faf9fa" fill-opacity="1"><g transform="translate(339.727607, 225.888183)"><g><path d="M 9.125 -2.734375 L 9.125 0 L 1.203125 0 L 1.203125 -13.65625 L 9.125 -13.65625 L 9.125 -10.9375 L 4.21875 -10.9375 L 4.21875 -8.21875 L 8.921875 -8.21875 L 8.921875 -5.484375 L 4.21875 -5.484375 L 4.21875 -2.734375 Z M 9.125 -2.734375 "/></g></g></g></svg>